<?xml version="1.0" encoding="UTF-8"?>
<svg id="Layer_1" xmlns="http://www.w3.org/2000/svg" version="1.1" viewBox="0 0 1080 1920">
  <!-- Generator: Adobe Illustrator 30.2.1, SVG Export Plug-In . SVG Version: 2.1.1 Build 1)  -->
  <defs>
    <style>
      .st0 {
        fill: #4a00a2;
      }

      .st1 {
        fill: #fff;
      }

      .st2 {
        fill: #acff00;
      }
    </style>
  </defs>
  <rect class="st0" width="1080" height="1920"/>
  <g>
    <g>
      <path class="st2" d="M492.35,1522.36c-1.98-1.02-2.09-1-2.54-.19-.21.51-.33.66-.34.08-.12-.09-.24-.4-.46-.34-.12.13-.25-.18-.26-.64-.11-.66-.23-.64-.69-.41-.45.34-.68.28-.92-.11-.46-.47-3.48-2.17-4.05-1.9-.23.05-.46-.01-.47-.23-.35-.49-1.35,1.25-2.33,4.03-.66,1.55-.98,2.67-.97,2.78-.12.02-1.27.19-2.41.23-8.27.39-17.81,4.92-25.49,11.98-4.4,4.19-10.12,11.23-12.32,15.69-1.33,2.52-1.54,3.37-1.62,5.24-.09,1.76.62,2.51,4.24,5.43,1.63,1.33,3.74,3.12,4.68,3.93,2.56,2.26,3.72,2.67,8.89,3.02,3.44.2,5.97.16,10.9-.34,3.09-.18,7.23.2,7.71.89.94,1.28-.9,7.25-3.56,11.71-1.67,2.95-5.02,7.23-7.85,9.87-2.14,1.91-5.2,4.39-6.45,5.03-.35.32-1.26.78-1.93,1.17-.68.5-1.69.98-1.92,1.28-1.48.82-7.07,2.77-8.89,3.09-1.84.44-2.18.3-4.74-1.5l-1.28-.96-.44.8c-.67,1.21-.31,2.49.75,3.39.46.46,2.09,1.68,3.49,2.84,1.63,1,3.5,2.5,4.43,3.19,1.86,1.51,3.02,1.69,6.57,1.18,1.02-.25,3.53-.99,5.59-1.72,5.36-1.99,8.76-3.97,13.27-8.18,7.78-7.2,13.76-18.59,12.83-24.82-.4-2.79-2.06-5.15-5.66-8.08-.82-.71-2.34-1.96-3.27-2.89-2.8-2.67-8.95-5.54-10.65-4.9-.24.05-.59.02-.59-.09-.12-.43-2.3-.48-7-.14-3.79.34-7.92.32-7.93.09-.12-.89,4.89-8.46,7.93-11.86,2.81-3.22,4.05-4.32,6.64-6.35,3.51-2.81,6.81-4.76,9.77-5.95.57-.25,1.14-.62,1.13-.85,0,0,.22-.06.56-.02.23-.05.82-.08,1.27-.19.56-.25.81.26.36.95-.12.13-.31,1.45-.52,2.88-.09,1.65-.28,3.07-.4,3.57-.1.48-.31,1.45-.31,1.92.16,2.14.19,3.29.29,3.16.11-.26.57-.03,1.15.19.58.2,1.16.4,1.39.35.1-.02.34.03.45,0,.12.31,2.78.71,3.34.57.12-.02.57-.02.81-.08.46.12.91-.45,1.11-1.88l.32-1.23-.1,1.05c-.05,3.25.19,3.66.74,2.47.22-.44.42-.22.59.67.12.66.93.69.81.03-.01-.69.66-.62.8.15.17.58.36.65.58.21.33-.77.62-3.49.39-3.79-.12-.09-.13-.31.1-.37,0,0,.54-1.98.95-4.27.52-3.46,2.75-12.44,4.26-17.53.64-2.35.52-2.78-.75-3.28l.02-.02ZM449.41,1552.66c-.1.02,0-.23.45-.68-.1.37-.33.66-.45.68ZM483.63,1546.41c-.58-.33-.59-.67-.01-.7.22.06.45-.22.33-.43,0-.23.09-.83.21-1.09.21-.4.22-.28.23.53-.08,1.52-.31,1.8-.76,1.68h0ZM484.68,1542.11c-.06.4-.13.42-.22.05,0-.34-.01-.69.2-.97,0-.12.24-.18.24-.06,0,.23-.11.6-.22.98ZM485.21,1539.43c-.14.35-.21.37-.22.06,0-.22.1-.61.09-.95.22-.39.35-.43.35-.19,0,.34.02.81-.22,1.09h0ZM492.59,1523.57c-.11.02-.22-.06-.23-.4.22-.29.21-.51.33-.54,0,0,.11.19.12.42.12.32,0,.46-.22.52h0Z"/>
      <path class="st2" d="M507.18,1583.12c-.57.13-.79.55-.87,2.64-.08,1.52-.3,2.03-.87,2.64-.46.45-.67.85-.45.79.12-.02.25.4.26,1.09-.11.61.02,1.15.02,1.26.23.42.57.1.55-.48,0-.45.22-.74.44-1.04.23-.16.23-.28-.12-.31-.35-.04-.23-.07.11-.16.45-.22.44-.45.32-1.33-.12-.55-.13-1.13.09-1.18.46-.11.54-1.74.19-1.99-.16-.2-.16-.28,0-.23.24.17.46,0,.46-.12s-.01-.57.1-.94c.09-.49-.01-.7-.26-.64h.03Z"/>
      <path class="st2" d="M505.62,1585.46c.46-.45.3-2.26-.27-2.12-.22.05-.34.19-.21.39.1.21.23.64.24,1.21-.11.49.01.69.24.51h0Z"/>
      <path class="st2" d="M508.44,1583.16c.13.32.14,1,.03,1.49-.09.48-.2,1.09-.08,1.17.1.09.1.2.22.06.23-.17.96-3.93.72-4.09-.22-.18-.9.9-.89,1.37h0Z"/>
      <path class="st2" d="M510.44,1573.32c-.23.06-.46.34-.33.54.11.21.01.57-.22.87-.23.28-.34.89-.43,1.37,0,.46.03,1.72-.07,2.67-.1,1.18-.09,1.88.16,1.82.22-.06.22-.29.21-.63,0-.23.1-.94.2-1.54.22-.63.43-1.73.53-2.44-.02-.81.2-1.67.3-2.15.33-.89.21-.98-.35-.49v-.02Z"/>
      <path class="st2" d="M543.77,1575.82c-.09.26-.21.73-.08,1.05.24.86.68.53.55-.49-.13-1.22-.14-1.35-.48-.57h.01Z"/>
      <path class="st2" d="M501.33,1589.39c-.11-.09-.34.08-.46.23-.09.26,0,.23.36.15.46-.12.57-.25.1-.38Z"/>
      <path class="st2" d="M505.32,1588.29c0-.22-.11-.32-.35-.37-.11-.1-.22.17-.22.29,0,.34.12.42.23.39.24-.06.34-.19.34-.32h0Z"/>
      <path class="st2" d="M501.41,1587.41c-.23.29-.11.49.12.55.24.17.47.22.58.2,0,0-.11-.21-.24-.51-.12-.43-.12-.55-.46-.23h0Z"/>
      <path class="st2" d="M501.6,1591.41c-.1.6-.1.71.13.42.11-.25.21-.5.1-.71,0-.23-.23.06-.23.29h0Z"/>
      <path class="st2" d="M551.65,1502.01c-.23.18-.35.08-.35-.03,0-.23-.57-.2-1.26-.03-1.13.28-1.25.3-1.12.96l.11.54-.91-.35c-.46-.34-1.04-.43-1.38-.24-.24.17-.58.13-1.04.14-.7-.31-4.81.59-4.8.93,0,.12-.12.26-.23.18-.35-.16-.9.78-1.21,2.48-.44,1.37-3.21,18.2-5.38,30.96l-.4,2.75-1.71.54c-.91.33-2.96,1.06-4.56,1.45-4.45,1.43-6.74,2.1-9.47,3.23-1.36.45-2.52.84-2.63.64-.11.02.06-2.55.47-5.66,2.66-22.22,2.86-23.88,1.93-24.92-.24-.17-.46-.11-.8-.03-.24.06-.82.07-1.27.08-.47-.12-1.15-.07-1.6.15-.57.14-.69.4-.68.85l.24.64-1.05-.55c-.92-.35-1.15-.41-1.48.02-.45.34-.8.42-1.61.16-.8-.15-1.6-.07-3.43.49-1.25.31-2.41.82-2.52.84-.22.28-3.16,20.72-4.26,29.08l-.6,4.64-.79.42c-.58.24-2.4.93-4.35,1.51-3.3.93-4.56,1.58-4.2,1.95,0,.12,0,.23-.24.4-.22.17.02.8.61,2.04,2.02,3.31,2.5,3.89,2.72,3.83.12-.02.24.18.24.29,0,.34.35.61.7.75.59.21.7.53.61,1.24-.11.61.02.81.23.64.11-.15.23.06.24.64.01.69.24.97.58.88.46.01.59.1.36.27-.57.49-.09.95.82.72.57-.13.57-.02.58.32-.12.26-.33,1.47-.41,2.75-.21,1.21-.4,2.64-.4,2.98-.12.27-.21,1.32-.31,2.15-.09.94-.18,2.02-.29,2.49,0,.34-.19,1.55-.29,2.61-.1,1.05-.29,2.49-.4,3.09-.09.84.02,1.26.26,1.33.16.11.12.19-.11.25-.45.11-.56.95-.83,4.71-.11.6-.21,1.31-.31,1.58-.23.16,0,.11.22-.18.46-.45.58-.49.59-.02,0,.22.11.43.34.37.12-.02,0,.12-.32.43-.35.31-.57.6-.45.81-.04.01-.12.03-.23.05-.34.08-.57.38-.56.72,0,.23.24.28.35.15.12-.15.23.05.47.23,0,.45.47.46,1.73.15,1.02-.25,1.7-.65,1.82-.91.21-.51.33-.54.34-.08,0,.23.04.21.11-.04.23-.28.58-.36.92-.45.33.15.56-.02.56-.14,0-.22.22-.39.69-.51.57-.13,1.01-.82.66-.96-.1-.09-.34.08-.34.21-.11.26-.21.39-.32.42-.46.12-.3-2.69.16-3.26.11-.26.22-.74.21-1.32-.13-.54.11-.83.44-1.03.34-.08.45-.11.35.14-.12.26.11.21.46.12.34-.08.57-.14.34-.19-.34-.04-.46-.59-.12-.55.11-.02.34-.08.57-.14.35-.21.35-.32-.12-.43-.46,0-.47-.12-.13-.21.58-.14,1.01-1.74.64-2.23,0-.11,0-.22.12-.25.11-.02.23-.29.22-.52.38-3.67.7-5.59.8-5.61.24-.06.24-.4.23-.76-.02-1.26.29-2.26.75-2.14.23-.06.46-.12.46-.35,0-.11-.24-.17-.47-.11-.22.05-.22-.18-.24-.76.09-.48.21-.61.44-.45.12.32.24.28.57-.14.22-.28.22-.32,0-.11-.22.21-.26.1-.12-.31.22-.29.55-.49.56-.38.23.06.3,3.28.07,3.45,0,0,.01.57.02,1.03,0,.46-.09.95-.32,1.12-.34.19-.34.31.01.57.35.26.35.37.13.66-.23.28-.34.32-.23.28.23-.05.23.06.12.32-.11.13-.2,1.21-.3,2.15.02,1.04-.2,1.89-.41,2.06-.23.2-.19.27.11.2.34-.08.57-.36.56-.83,0-.34.1-.71.22-.73.22-.06.22.05.23.28.02.81.83.61,1.38-.23.34-.54.34-.77.09-1.05-.22-.17-.23-.52-.02-1.15.23-.52.44-1.26.43-1.72.2-1.55.2-1.66.43-1.72.11-.02.22-.28.1-.49-.11-.2,0-.34.21-.39.24-.06.24-.17,0-.23-.22.05-.33-.15-.34-.38,0-.12.11-.26.22-.17.11.1.35.04.23-.17-.13-.54.31-1.92.64-2.23.23-.16.23-.28-.22-.17-.34.08-.34-.03-.25-.17.46-.46.67-1.43.33-1.34-.15.03-.15,0,0-.11.23-.18.33-.43.33-.66s.11-.5.22-.52c.34-.08.17,3.08-.17,3.28-.34.08.25.75.59.66.23-.06,1.06-4.41,1.47-7.05.35-2.39.94-3.72,1.77-4,.45-.23,1.7-.53,2.61-.88,1.03-.36,3.42-1.28,5.14-1.93,1.82-.68,3.88-1.41,4.45-1.66.68-.17,2.17-.64,3.42-1.07l2.28-.77-.22.84c-.2,1.33-.89,7.26-.96,9.01-.29,2.49-.39,4.02-.98,9.47-.16,1.22-.16,2.26-.02,2.53l-.08.71c-.21.46-.3,1.42-.2,1.86l-.09.81c-.2-.1-.21.16-.28.95-.04,1.22-.05,1.93-.07,2.41l-.09.83v.03c-.16.2-.14.3-.03.32l-.15,1.44v.02c-.01.11-.11.61-.21.86-.07.41-.04.57.06.62l-.06.6c-.1.05-.09.13-.02.22l-.17,1.57c-.09-.16-.09-.13-.09.29,0,.12,0,.24.02.31l-3.23,30.48c-.03,1.03-.11,3-.22,5.35-.28,3.24-.59,7.41-.63,9.52l-.13,3.57.67.56c.64.31,1.26.36,2.7-.01,1.06-.36,2.14-.6,2.15-.48.12-.05.59-.21,1.17-.54.58-.33,1.05-.49.96-.19-.11.16.03.25.38.12.12-.04.21-.34.07-.54-.14-.22-.06-.63.17-.71.1-.17.28-.89.21-1.52-.06-.63.11-1.34.2-1.64.2-.46.37-1.18.29-1.94-.11-1.14.08-1.6.8-1.72.24-.07.22-.2.19-.58-.03-.25-.17-.47-.29-.44-.12.05-.25-.03-.27-.29-.01-.13.09-.3.22-.22.13.09.24-.07.22-.2-.01-.13-.16-.34-.29-.44-.26-.16-.35-2.23-.02-2.6.24-.08.32-.51.28-.89s.05-.67.32-.5c.25.04.24-.08.07-.55-.16-.33-.06-.63.04-.79.1-.17.28-.88.2-1.64.05-.68.12-1.22.25-1.14.12-.04.22-.21.2-.46-.04-.42.03-.49.22-.21.27.3.35,1.06.19,1.9,0,.09.02.17.03.25.01.13-.15.97-.17,1.9-.27,1-.25,2.32-.16,3.2.08.76-.08,1.59-.31,1.8-.1.17-.17.71.01,1.31.18.59.22.97-.04.79-.12.05-.22.21-.2.46-.08.43,0,1.19.05,1.69.05.51.09.89.21.84.47-.17.84-1.33.65-2.05-.14-.22-.2-.72.04-.8.1-.17.2-.46-.06-.63-.14-.22-.03-.25.35-.13.41.39.42.52.28,1.61-.17.72-.34,1.43-.46,1.47-.12.04-.11.16-.09.29.14.22.04.38-.2.46s-.45.42-.42.67.27.3.5.09c.22-.21.47-.15.5.1.04.38-.66.74-1.26.83-.12.04-.21.32-.07.54.2.72.81.76,1.1.01.21-.34.33-.37.35-.12s-.19.58-.29.75c-.33.37,0,1.17.47,1.02.47-.17.84-2.53,1.06-6.4.16-2.02.41-4.46.57-5.3.23-1.26.19-1.64-.05-1.55-.16.05-.13-.05.09-.3.34-.37.3-.75.36-2.61.06-.55.12-1.22.2-1.51.12-.17.27-1.02.21-1.65.03-1.98.14-2.27.35-2.61.2-.46.27.3.08,2.06-.03.81-.15,2.03-.2,2.7.08.76-.04,1.98-.22,2.7-.29,1.94-1.09,13.35-1.04,13.85.04.38.16.47.39.39.24-.08.54-2.02.56-4.25.03-.79.19-2.82.42-4.33.19-1.64.39-3.41.32-4.04-.05-.51.03-.92.02-1.05.22-.21.28-.76.21-1.39-.05-.51.03-1.05.13-1.22.04-.06.09-.25.13-.42l4.04-52.91c.29-.08.4-.21.29-.3-.35-.49.18-2.8.52-2.88.22-.06.35.15.23.28-.09.27-.2,1.21-.17,2.47-.16,3.28-.37,4.94-.58,5.45-.35.32-.22.74.23.64.24-.05.87-2.98.75-3.19,0-.22-.02-1.03.2-1.89.22-.73.42-2.17.51-3.01.21-1.89.19-2.58.6-4.99.21-.98.42-2.52.4-3.32.09-1.3.08-1.42-.25-.98-.23.28-.33.77-.32,1.11,0,.34-.11.71-.21.98-.11.15-.22.86-.2,1.54-.11.73-.2,1.33-.31,1.47-.11.15-.22.74-.2,1.55.02,1.15-.43,1.94-.78,1.34-.1-.2-.23-.4-.11-.54,0-.11,0-.34-.25-.29-.33.08-.22-.17.11-.6.21-.52.44-1.03.44-1.37,0-.46.09-.73.33-.78.15-.04.18-.13.11-.27-.58-.2-.39-1.75.07-1.86.23-.06.35-.08.12-.13-.23-.07-.36-.95-.15-1.59,0-.11.11-.37.11-.48,0-.12.22-.52.44-.93.22-.51.22-.73-.01-.69-.22.06-.22-.06,0-.46.12-.26.33-.66.22-.86-.24-.4.31-1.45.66-1.54.12-.02.24.28.14.89-.2,1.54-.29,2.73.05,2.64.22.05.75-2.16,1.06-4.2.11-.82.32-1.92.53-2.54.23-.51.32-1,.22-1.09-.12-.09.09-.49.2-.86.22-.4.32-1.23.2-1.55-.02-1.15.29-2.61.75-2.72.22-.06.22-.17-.02-.8-.24-.53-.04-2.3.87-8.18,2.01-14.57,2.9-22.28,3.25-27.91.18-2,.17-2.58-.3-3.27-.59-1.01-1.4-1.51-1.86-1.06l-.05.02ZM498.75,1592.44c-.33.66-.34.19-.01-.69.24-.41.23-.52.34-.21,0,.23-.09.6-.33.89h0ZM499.9,1587.08c-.22.29-.45.34-.46-.12,0-.23.22-.39.35-.43.1.21.23.29.11.55ZM501.38,1585.68c-.58.14-.47-.47-.02-1.26.22-.37.34-.24.35.38,0,.45-.22.86-.33.88h0ZM501.79,1583.63c-.11.02-.34-.04-.35-.27,0-.11.23-.28.34-.19.12.08.24.28.24.28,0,.12-.11.15-.23.18h0ZM502.1,1581.7c-.11.15-.33.44-.44.46-.23.06-.24-.51-.02-1.04.33-.66.68-.17.46.58h0ZM502.3,1579.93c-.23.06-.34.08-.46-.12-.12-.09,0-.34.21-.39.23-.06.47.1.47.22,0,.23-.11.27-.23.29h.01ZM502.51,1579.06c-.15.04-.19-.03-.11-.2.11-.27.21-.4.33-.43,0,0,.12.08.13.31s-.12.27-.35.32ZM502.82,1576.45c-.12.27-.35.32-.46.12-.24-.4-.01-.69.45-.69.1.1.11.32.01.57h0ZM507.17,1565.01c.22-.75.22-.87.23-.17,0,.45-.09,1.05-.2,1.43-.21.62-.21.74-.22.17,0-.23.11-.83.19-1.43ZM506.31,1567.87c.23-.44.5-.5.81-.19.33.15.46.36.11.44-.1.02-.22.27-.21.5s.01.69-.21.98c-.07.25-.03.32.11.21.24-.17.24-.06.13.31,0,.34-.22.63-.33.66-.69.17-1.08-1.92-.41-2.9h0ZM506.79,1580.91c-.23-.07-.24-.3-.12-.33.11-.13.23-.06.35.15.24.4.01.57-.23.18h0ZM507.41,1577.3c-.21.39-.2.97-.2,1.31.24.76-.2,1.67-.44,1.04-.11-.21-.12-.32,0-.34.23.05.22-.4.21-1.09-.01-.7.21-1.33.33-1.36.45-.22.45-.11.11.44h0ZM508.86,1568.75c-.11.13-.11-.09-.12-.32,0-.34,0-.46.11-.26.11.21.12.44.01.57h0ZM509.7,1547.2c-.15.26-.18.23-.11-.1.1-.37.33-.54.33-.54.11.09,0,.45-.22.63h0ZM511.09,1565.1c0,.11,0,.34-.35.43-.3.23-.34.19-.11-.1.23-.28.46-.33.46-.33h0ZM510.41,1542.06c.11.09.12.32,0,.46-.12.15-.23-.06-.24-.29,0-.34.1-.48.23-.17h0ZM510.45,1568.36c-.45.11-.34-.03.11-.38.34-.19.34-.08.34.03-.12.27-.34.32-.46.35h.01ZM510.65,1566.58c.11-.02.24.17.24.4,0,.38-.07.51-.22.4-.35-.26-.36-.72-.02-.81h0ZM510.65,1566.34c-.34.08-.35-.14.22-.4.23-.27.23-.16.23-.05,0,.23-.22.39-.46.45h0ZM539.89,1564.76c.11-.13.34-.54.56-.72.23-.28.22-.39-.13-.31-.34.08-.34-.03.11-.38.23-.28.45-.68.45-.92,0-.23-.08-.21-.23.06-.11.26-.35.32-.36-.15-.11-.32-.01-.57.11-.72.23-.16.23-.28-.13-.54-.23-.29-.23-.53-.01-.57.16-.04.24-.1.24-.17-.12-.1-.01-.57.2-1.1.22-.5.34-.88.11-.82-.12.02-.13-.44-.02-1.04.22-.63.31-1.23.2-1.44,0-.22-.01-.57.2-1.08.15-.51.3-.58.46-.23.12.32.23.06.32-1.11.21-.98.42-1.61.65-1.66.58-.14.69.41.26,1.54-.32,1-.32,1.12.02,1.04.35.03.36.15.02.92-.22.51-.32,1.23-.2,1.55,0,.46-.09.83-.21.97-.1.16-.21.63-.08.95.11.54.02.92-.1.94-.12.02-.22.52-.22.87-.09.94.13,1,.93.81.11-.15.11-.02,0,.22,0,.12-.46.34-.68.17-.46.11-.57.14-.45.57.13.21.13.44,0,.23-.23-.06-.34.08-.34.19,0,.12.12.32.35.26.15-.03.15,0,0,.12-.34.19-.33.54-.21,1.32.13.55.02.92-.09.94-.23.06-.35.32-.34.55,0,.22.13.32.36.26.11-.02.24.18.24.29,0,.23-.22.39-.46.45-.3.07-.34.16-.12.26.24.1.28.17.13.21-.34.08-.34.19-.11.6-.87.53-1.58.96-1.91,1.14-.09.05-.19.11-.28.16.02-.29.03-.57.03-.77.11-.72.23-.87.68-.63.35.26.35.15,0-.34-.11-.2-.35-.38-.58-.2-.22.16-.22.05,0-.34.23-.29.33-.55.22-.52-.11.02,0-.34.1-.71.22-.4.33-.89.32-1.12h0ZM542.19,1567.58c.02-.05.03-.1.05-.15.35-.37.42-.43.44-.15-.17.1-.33.2-.5.3h.01ZM542.67,1565.92c0-.34.11-.48.23-.16.12.07.13.43,0,.46-.11.25-.23.05-.24-.3h.01ZM538.94,1557.37s-.1.02-.1-.2c0-.12.09-.38.21-.4.23-.06.24.17.24.29-.11.25-.23.28-.35.31h0ZM538.68,1555.36c.11-.38.21-.74.32-1,.23-.17.33-.66.44-1.03.07-.25.1-.19.11.2,0,.45-.21,1.21-.54,1.64-.45.68-.56.71-.34.19h.01ZM538.85,1557.75c.1-.02.23.29.23.64-.1.94-.11.83-.33.66-.35-.26-.26-1.21.1-1.3h0ZM537.21,1568.31c.23-.17.69.17.7.64,0,.22-.21.39-.33.43-.23.05-.59-.78-.36-1.07h-.01ZM532.17,1557.53c-.1.02-.22.06-.22-.16,0-.12.12-.27.22-.18.12.1.25.28.25.28,0,0-.12.04-.24.06h-.01ZM524.81,1556.21c-.12.27-.24.4-.35.43,0,0-.11-.08-.12-.31,0-.12.11-.27.34-.32.12-.04.22.05.13.2h0ZM527.59,1551.83c-.23.29-1.83.92-2.28.8-.31-.08-.24-.21.22-.4.34-.19.91-.33,1.13-.28.46,0,.46-.11.35-.32-.16-.19-.08-.21.23-.06.24.18.46.23.35.26h0ZM528.37,1550.38c.22-.05.46.12.46.12,0,.23-.57.25-.69-.06-.12-.09,0-.23.23-.06h0ZM528.92,1555.55c-.23.06-.24-.17-.24-.51,0-.23,0-.34.23-.06,0,.23.24.17.57-.14-.11.38-.45.69-.56.72h0ZM531.12,1550.98c-.33.55-.55.6-.55.48.21-.61-.01-.69-.7-.28-.79.53-1.93.59-1.71.19.11-.13.23-.29.45-.22.12.07.23-.06.46-.24,0-.22.22-.27.34-.19.23.06.34-.08.34-.19,0-.35,1.01-.71,1.27-.3.35.26.8.03.56-.38-.11-.2,0-.34.35-.43.22-.05.35.14.35.49-.11.38-.11.49-.33.54,0-.11-.35.21-.81.55l-.02-.02ZM531.31,1636.62c-.42.67-.83.28-.55-.59.2-.46.31-.51.47-.17.14.22.18.6.08.76ZM531.25,1634.82c-.29-.44-.12-1.14.28-.89.03.25.05.51.08.76.02.25-.09.3-.35.13h-.01ZM535.98,1613.79c-.2.59-.26,1.13-.37,1.3.04.38.02,1.43,0,2.36-.15.97-.29,1.93-.41,1.97-.22.21-.26-.17-.15-1.52.13-1.22.15-2.14-.09-2.07-.12.05-.06-.63.22-1.51.28-.75.43-1.72.41-1.85-.04-.38.08-.43.35-.13.18.47.1,1.01.03,1.44h.01ZM539.15,1616.11c-.24.08-.25-.04-.27-.3.1-.17.2-.46.32-.51.12-.04.14.22.16.34.03.25-.08.42-.2.46h0ZM539.66,1611.47c.25.04.14.22-.08.43-.33.37-.28-1.48.15-2.15.09-.29.12-.04.05.51-.17.71-.15.97-.12,1.22h0ZM543.9,1558.13c-.11.27-.11.04-.12-.31,0-.34,0-.46.22-.17,0,.11,0,.45-.1.48h0ZM544.31,1556.06c-.1.04-.22.29-.09.5.11.31.11.43,0,.46-.12.02-.24-.07-.47-.36-.24-.53.44-1.26.67-.85,0,.11,0,.22-.12.25h.01ZM544.86,1536.44c0,.12-.12.02-.13-.32,0-.34.11-.48.23-.17.12.09.13.43-.1.49ZM546.85,1550.84c0,.23-.44.45-.68.51-.38.09-.46-.01-.24-.29.57-.48,1.14-.62.91-.22h.01Z"/>
      <path class="st2" d="M551.7,1546.19c.35-.08.45-.22.35-.32-.12.04-.35-.03-.58.14-.11.15-.11.26.24.17h0Z"/>
      <path class="st2" d="M548.97,1547.44c0,.11.35.15.57-.03.45-.22.57-.35.32-.54-.34-.26-.9.11-.9.57h.01Z"/>
      <path class="st2" d="M505.32,1575.6c.11-.25.1-.6-.02-.8-.12-.09-.12.04-.11.38,0,.45.01.69.13.42h0Z"/>
      <path class="st2" d="M550.55,1545.89c-.24-.17-.35-.15-.23.29.13.32.24.51.47.47.34-.08.33-.55-.25-.76h.01Z"/>
      <path class="st2" d="M551.58,1545.54s-.23-.07-.24-.29c-.23.06-.34.08-.34.3,0,.12.11.21.35.15,0,0,.23-.05.23-.16h0Z"/>
      <path class="st2" d="M601.31,1499.49c-2.99-.07-5.74-.22-8.4-.83-2.54-.65-2.76-.6-5.85.16-4.58,1.12-7.76,3.15-12.6,7.91-10.47,10.29-18.24,30.06-18.17,45.84-.05,3.02.23,5.38.59,6.44.12.31.25.97.26,1.54.64,3.2,3.83,8.29,6.51,10.3,2.9,1.94,4.52,2.25,13.69,1.86,2.2-.19,4.83-.26,5.74-.24,2.86-.12,7.21-1.64,10.6-3.85.91-.57,1.36-1.03,1.36-1.37,0-.45-.01-.57.34-.32.46.23,1.6-.38,4.19-2.62,7.34-6.41,14.56-18.56,18.12-30.95,3.44-11.8,2.5-19.53-3.4-26.86-4.12-5.11-8.06-7.26-12.99-6.99v-.02ZM566,1549.29c-.12.15-.24.06-.25-.16,0-.23.11-.5.23-.52.22-.06.33.03.33.15,0,.23-.1.48-.32.54h.01ZM566.4,1546.43c-.23.05-.35-.03-.24-.29s.69-.29.7.06c0,.11-.24.17-.46.23ZM569.5,1546.59c-.23.06-.23-.05-.24-.28.12-.27.22-.4.35-.43.11-.04.11.08.12.31,0,.23-.1.38-.22.4h-.01ZM601.38,1539.28c-3.4,8.43-7.06,14.42-12.13,19.8-2.02,2.11-5.97,5.72-6.31,5.8-.11.02-.57.36-1.14.74-.46.33-1.7,1.11-2.61,1.66-1.01.72-1.82,1.02-2.04,1.08-.35.08-2.93-2.63-3.76-4.27-4.27-7.15-3.61-20.24,1.52-33.72,1.64-4.21,2.75-6.55,5.31-10.64,4.67-7.6,11.1-13.9,15.88-15.52l1.59-.51,1.29,1.3c1.65,1.79,3.54,4.32,4.37,6.08.36.83.72,1.67.84,1.87,1.19,2.25,1.44,3.69,1.42,8.08.1,5.06-1.18,10.44-4.25,18.22l.02.03ZM610.57,1539.47c-.07.01-.11-.06-.11-.21.11-.26.35-.43.44-.45.24-.06.24.05.25.28-.12.27-.34.32-.58.38h0ZM611.58,1537.95c-.15.04-.23-.06-.24-.29.1-.61.43-1.04.44-.46,0,.34-.1.61-.21.76h.01ZM618.01,1526.12c.11-.38.22-.63.33-.66.23-.06.24.17.13.54-.11.38-.22.74-.33.77-.23.06-.24-.28-.13-.65ZM613.54,1532.28c-.45.69-.46.12-.02-.81.1-.37.1-.48.23-.16,0,.34-.11.71-.21.97h0ZM614.74,1523.44c.24-.16.33-.53.44-1.03,0-.46.12-.13.13.66.02.81-.09,1.87-.2,2.25-.09.71-.21.62-.35-.39-.12-.65-.03-1.38-.03-1.49h.01ZM614.6,1527.76c-.09,1.63-.75,3.05-.99,2.77-.11-.09,0-.34.11-.6.11-.04.21-.51.2-.98,0-.46.21-1.09.54-1.75.22-.44.26-.26.13.55h.01Z"/>
      <path class="st2" d="M690.36,1491.75c.12-.02.23-.28.22-.62,0-.3-.08-.32-.23-.06-.21.4-.33.66-.33.77,0,.12.13.21.34-.08h0Z"/>
      <path class="st2" d="M689.84,1482.54c-.13-.44-.75,2.14-.64,2.46.12.55.23.4.56-.25.34-.77.33-1.34.08-2.2h0Z"/>
      <path class="st2" d="M689.11,1485.72c-.34-.04-.46.12-.24.28,0,.23.25.29.36.27.56-.14.33-.55-.12-.55Z"/>
      <path class="st2" d="M694.51,1486.13c-.34.08-.34.3-.24.4.12.09.25.16.36.14s.11-.13.11-.25-.12-.32-.23-.29Z"/>
      <path class="st2" d="M693.21,1490.25c0,.46-.21,1.33-.43,1.83-.22.63-.43,1.16-.43,1.27,0,.12.11.09.34-.08.44-.45,1.2-3.06.85-3.44-.23-.17-.34-.03-.33.43h0Z"/>
      <path class="st2" d="M693.42,1483.62c-.22.06-.34.32-.21.4.23.28.11.44-.11.49-.12.04-.34.19-.34.32,0,.45.57.21.8-.31.21-.63.2-.98-.14-.89h0Z"/>
      <path class="st2" d="M693.87,1488.94c0,.34,0,.45.12.32.24-.06.24-.4.11-.49-.24-.18-.23-.06-.23.17Z"/>
      <path class="st2" d="M751.37,1440.57c-.48.11-10.65,4.69-12.33,5.64-.6.42-1.68.95-2.4,1.11-.59.28-1.67.81-2.4,1.1-1.55.79-2.27.95-1.9.59.25-.34.48-.55,2.28-1.23.6-.14,1.32-.58,1.44-.77.24-.18.83-.47,1.32-.71,1.68-.66,2.03-.75,2.27-1.24.17-.32.25-.39.25-.2,0,.28.35.2,1.43-.45.72-.45,2.88-1.52,4.67-2.35,3.47-1.5,5.52-2.67,5.53-3.24,0-.57-.83-.66-1.07-.18-.13.17-.36.51-.6.56s-.24-.09,0-.42c.6-.56.38-1.22-.33-1.19-.24-.09-.48.11-.47.25.1.68-.03,1.56-.39,1.64-.24.05-.36-.2-.24-.51.13-.31.01-.57-.23-.51-.24.05-.48.39-.49.68,0,.28-.12.45-.36.37-.12.03-.24.05-.24.19s-.6.56-1.2.98c-.96.5-1.08.53-1.55.21-.22-.37-.23-.51.02-.43.23.23.47.03.6-.14,0-.28.47-.39.71-.3.72-.02,1.67-.81,1.69-1.37,0-.14-.35-.06-.83.05-.48.11-1.19.27-1.56.5-.24.05-.36.22-.36.37.23.23-.13.31-.71.3-.6,0-1.07.25-1.2.42-.13.31-.84.76-1.55.92-.83.19-2.03.61-2.87,1.22-.84.33-1.56.78-1.68.81-.08.02-.16.04-.24.05-.72.45-1.44.61-1.79.41-.31-.12-.27-.22.13-.31.24-.05.37-.22.36-.37-.11-.12.36-.37.97-.65.72-.16,1.31-.58,1.43-.75s.36-.37.71-.3c.48.03.6,0,.49-.25-.23-.23,0-.42.36-.51.36-.08.72-.31.73-.59.24-.48,2.16-1.06,2.38-.83.12.11.36.2.48.17.12-.03.24-.2.11-.31-.11-.12.02-.29.14-.31.24-.05.35.06.34.2,0,.14.24.23.48.17.36-.08.48-.11.47-.39-.1-.82.26-1.19,1.34-1.43.72-.16,1.32-.58,1.68-.95.25-.2.84-.61,1.44-.75s1.2-.56,1.33-.73c0-.28.36-.51.6-.42.23.09.48-.11.47-.25.02-.43-.11-.54-.22-.37-.25.2-.23-.37-.1-1.11s.14-1.3.15-1.45c-.12.03-.21-1.22-.19-2.5-.08-1.69-.31-2.34-.78-2.94l-.7-.55-3.22,1.3c-1.91.72-5.63,2.41-8.5,3.78-2.12.88-3.89,1.61-4.82,1.98l-41.02,20.5c-2.05,9.89-2.2,10.87-2.43,12.15-.1.66-.5,2.52-.91,4.53-.54,1.03-1.14,3.22-1.12,4.05,0,.34-.22.74-.45.79-.11.27-.1.38-.1.5.11.19,0,.34-.22.5-.34.08-.56.84-.77,1.68-.09.84-.31,1.58-.43,1.61-.1.02-.22.28-.21.51.01.57-.76,1.7-1.01,1.51-.22-.05-.34.08-.34.32,0,.11.35.15.69.06.24-.05.36.15.13.21-.12.25-.45.9-.77,1.68-.22.74-.54,1.64-.76,1.79-.31.31-.38.52-.22.63.46.12.35.26-.11.6-.68.51-1.55,2.69-1.3,3.55.11.21.12.55.02,1.03.01.57-.1.6-.23.29-.23-.53-2.51,6.73-6.39,19.79-.64,2.35-3.02,10.2-3.22,11.05-.12.26-.33.43-.34.3-.12.04-1.39-6.11-1.78-8.67-.5-2.53-1.02-5.07-2.01-9.09-.62-2.51-1.26-5.58-1.52-6.89-.62-2.86-1.23-4.66-1.72-5.94-.12-.66-.47-.81-.93-.58-.23.17-.57.13-.7.05-.1-.08-.69-.17-1.48.03-.84.05-1.26.26-1.25.64v.69l-1.16-.52c-.92-.35-1.27-.38-1.37.1-.12.26-.34.32-1.26.07-.81-.03-2.07.04-3.43.27l-1.95.36.08,4.24c.17,2.85.08,4.25-.14,4.54-.35.44-.34.66.02.93.35.14.35.26-.1.37-.34.08-.46.34-.45.8.01.57-.32,1.12-.67,1.43-.34.32-.67.63-.67.74,0,.23-.87,2.4-1.97,4.97-1.86,4.62-4.28,10.29-6.46,15.66-.78,1.57-1.33,2.87-1.33,2.87-.11-.1-.15-1.93-.31-4.07-.21-10.91-1.79-33.72-2.95-39.78-1.04-6.56-1.4-7.17-1.95-6.11-.22.39-.46.45-.46.11-.01-.69-1.62-.76-1.72-.27-.12.26-.24.28-.46.34-.12-.1-.34.08-.34.19,0,.46-1.37.57-1.49.13-.12-.09-.34-.03-.81.08-.34.32-.57.38-.79.19-.47-.34-1.96-.21-4.47.29l-1.27.19.05,2.64c.14,1.36.3,3.62.54,4.71.4,2.45.99,8.88,1.47,15.91.15,2.16.32,5,.46,6.01.13,1.13.38,7.86.64,15.08.85,25.52,1.21,32.81,1.79,33.02.23.1.23.18,0,.23-.79.19-.06,3.01.75,3.5.8.38,2.53.07,4.35-.94,1.02-.61,8.45-2.87,10.15-3.28.46-.12.8-.44,1.22-2.04.54-1.75,4.89-13.88,6.43-17.96.44-1.03,1.75-4.46,2.95-7.74,1.32-3.21,2.4-6.02,2.52-6.16.12-.26.24.18.48.92,2.21,12.86,5.32,25.94,6.13,25.97.34.04.22.06,0,.35-.35.29-.35.42.01.56.34.04.35.49.36,1.07.01.57.02.81.23.52.22-.4.33-.43.47.12.12.31,0,.46-.22.39-.45,0-.45.35.03,1.38.36.72.6,1.36.83,1.41.12-.02.13.33.13.55-.11.38.11.77.7,1.1.81.38,1.05.32,1.38.12.33-.43.46-.45.8-.19.46.23,2.15-1.21,2.14-1.79,0-.46,1.46-1.51,2.04-1.42.34.03.81-.08,1.03-.37.34-.3.56-.35,1.02-.25.34.04,1.38.02,2.17-.17,1.49-.25,1.83-.33,2.06-.97.21-.5.31-.99.31-1.33-.01-.57,3.61-15.3,4.89-20.12.44-1.49,1.08-3.83,1.39-5.19.32-1.11.76-2.49.86-2.98.56-1.39,1.84-5.86,1.94-6.47,0-.35.22-.86.33-1.11.11-.27.42-1.5.74-2.72.44-1.26.96-3.47,1.4-4.96,1.72-5.96,2.25-8.39,2.12-8.48-.1-.09.11-.71.43-1.6.77-1.7,1.31-3.66.97-3.58-.46.11-.89,1.36-1.09,2.92,0,.22-.1.37-.22.4-.22.05-.22.16-.11.37.12.09-.08.83-.42,1.6-.33.77-.77,1.92-.76,2.6-.21.74-.31,1.23-.55,1.53-.1.02-.21.4-.21.74s-.22.51-.33.55c-.46.11-.47-.47.09-1.31.22-.39.44-.68.34-.77-.12-.08.09-.71.31-1.58.21-.73.31-1.34.31-1.34-.22.06-.11-.2,0-.46.33-.43.45-.92.65-2.35.1-.6.21-1.32.31-1.45.22-.29.33-.66.32-1.11,0-.46.21-1.21.43-1.62.22-.39.32-1.22.31-1.8-.02-.81.32-1.35.54-1.86.34-.32.56-.84.44-.93-.11-.2,0-.46.11-.49.34-.08.66-1.2.31-1.58-.13-.65-.58-.43-.57.27-.1,1.17-.86,2.86-1.43,3-.23-.06-.57.14-.57.38,0,.34.23.39.35.26.57-.49.48,1.03-.08,2.2-.44.68-.66.85-.78.77-.23-.39-.57.25-.89,1.49-.11.49-.2.97-.44,1.15-.22.29-.21.63-.09.94.11.21,0,.46-.34.32-.34-.04-.34.08-.22.63.12.42.01.69-.43,1.03-.46.34-.46.45.01.69.23.25.2.38-.11.37-.46-.1-.57.14-.44.82.12.31.13.99-.1,1.28-.22.37-.33.39-.34.08-.02-1.04-.35-.15-.88,2.17-.64,2.46-1.29,4.81-2.17,6.42l-.33.88.21-1.09c.1-.6.2-1.44.42-1.6.12-.16.23-.29.11-.38s-.23-.64-.24-1.21c-.14-.77-.02-1.03.31-1.11.68-.17,1.23-1.68.65-1.78-.35-.15.32-1.81.66-1.89.12-.02.11-.48.1-1.05-.13-.66-.02-1.15.2-1.32.23-.28.33-.66.56-.94,0-.23-.02-.81.21-1.32-.01-.7-.02-1.04-.25-.98-.15.03-.23-.03-.24-.18.23-.16.46-.34.57-.24.34.03.22-.52-.13-.89-.11-.2,0-.46.1-.6.57-.27,1.21-2.38,1.19-3.87,0-.46.22-.86.32-1.12.69-.39.22-.62-.46-.22-.23.16-.57.48-.33.66.11.2,0,.46-.22.51-.11.26-.22.62-.21.98.01.57-.09.82-.44.56-.24-.17-.12-.65.08-1.63.33-.89.77-2.04.87-2.42.11-.6.45-.9.67-.96.35-.07.69-.28.69-.39,0-.23-.35-.26-.58-.21-.23.06-.35-.15-.35-.61,0-.34-.01-.69.1-.71.23-.06.77-1.81,1.19-3.99.09-.82.09-1.05-.26-.97-.56.14-.59-1.47-.04-2.07.24-.29.34-.55.23-.63-.24-.05-.13-.31,0-.46.32-.54.43-1.14.54-1.85,0-.35.09-.61.21-.63.23-.06.54-1.75.63-3.27.09-.49.32-1,.54-1.17.46-.34.46-.46.11-.49-.07-.02-.18-.06-.31-.12l46.44-21.3c.14-.11.31-.23.35-.28.13-.17.6-.43,1.08-.54.6-.14,1.08-.38,1.21-.69.12-.03.48-.25.95-.36.6-.14,2.16-.93,3.6-1.67,1.31-.74,3.12-1.57,3.83-1.86,2.03-.75,3.71-1.71,3.72-1.99,0-.28-.11-.38-.47-.3h-.04ZM747.58,1433.79c.72-.59,1.19-.27.7.41-.12.17-.47.25-.72.16-.36-.06-.35-.2.01-.57h0ZM746.62,1434.72c.23.23.22.37-.01.43-.24.05-.48.11-.72.16-.34-.35.25-.76.73-.59h0ZM633.88,1515.55c0,.23,0,.46-.1.49,0,.22-.11.04-.11-.2,0-.46.1-.5.22-.29h-.01ZM633.57,1517.13c.12-.13.22-.4.22-.4.11-.02.11.21.12.32,0,.34-.1.49-.21.52-.12.02-.23-.07-.13-.44h0ZM632.16,1491.74c.13.21.13.44-.11.5,0,.11-.11.02-.11-.21,0-.46.1-.49.23-.29h-.01ZM632.28,1545.6c-.12.02-.35-.15-.35-.27,0-.11.22-.17.34-.19.22.05.35.15.35.26,0,.12-.12.15-.34.21h0ZM632.38,1497.11c-.24.06-.24-.05-.25-.28.12-.15.24-.28.34-.3.12-.04.24.05.25.16,0,.23-.24.4-.33.43h-.01ZM632.95,1521.43c.12-.15.35-.31.46-.22.23.05.34-.66.32-1.7.09-.95.08-1.41.2-1.09,0,.34.36.72.48.7.35.14.35.26,0,.45-.12.26-.44,1.03-.43,1.6-.1.72-.09,1.06-.09.83-.12-.31-.35-.49-.58-.43-.35.08-.45,0-.36-.15h0ZM635.11,1537.41c-.23-.06-.33.43-.32,1.23.02,1.26-.75,3.18-1.1,2.69-.11-.09-.01-.69.21-1.09.44-.8.42-1.72.07-1.98-.11-.21-.13-.78.09-1.63.19-1.44-.04-7.74-.4-8.68-.09-.36.03-.42.34-.19.46.34.59.9.66,4.22.04,2.07.19,4.22.43,4.62.12.54.13.89.02.81h0ZM636.8,1512.31c-.22.05-.22-.07-.11-.21,0-.12.21-.4.21-.4.24-.05.25.17.25.29,0,.11-.24.28-.35.32h0ZM637.36,1523.02c0-.34.09-.49.22-.17.12.09.13.43-.11.6,0,.11-.1-.09-.11-.43h0ZM637.66,1526.87c.12.09.13.32-.11.48,0,0-.1-.08-.11-.31,0-.34.09-.5.22-.17h0ZM637.6,1530.1c0,.12-.1-.08-.11-.31,0-.34.09-.49.22-.28.13.2.13.43-.11.59h0ZM645.74,1534.94c-.23.06-.35.08-.36-.15,0-.12.12-.26.35-.32,0,0,.23.05.24.17,0,.23-.23.29-.23.29h0ZM647.92,1529.32c-.22.05-.34.08-.22-.17,0-.12.21-.4.44-.46.12-.02.24.17.24.29,0,.22-.23.28-.46.34ZM649.14,1526.6c-.22.63-.56.72-.91.46-.12-.09.1-.38.45-.58.53-.35.68-.31.46.12h0ZM653.51,1515.62c-.1.38-.55.83-.79,1-.45.34-.57.36-.35-.37.11-.61.89-1.61,1.12-1.44.23.06,0,.45.02.81h0ZM662.29,1506.45c-.34.08-.34-.04-.24-.18.23-.16.58-.13.68-.17.12.09-.09.27-.45.35h.01ZM662.78,1508.16c-.23-.52-.12-.88.34-.77.11.09.12.43.01.69,0,.38-.11.41-.35.08h0ZM663.4,1510.56c-.11.25-.11.02-.12-.33,0-.34,0-.45.23-.16,0,.11,0,.46-.11.49ZM665.65,1501.93c0,.12,0,.46-.11.5-.11.26-.22.05-.23-.29,0-.35.1-.49.34-.21h0ZM664.27,1513.8c-.22.28-.22.17-.23-.29,0-.23,0-.34.22-.28.12.09.13.43.01.57h0ZM664.41,1514.69c0-.22.24.42.37,1.41.25.88.27,1.8.15,1.82-.22.06-.74-2.71-.52-3.23ZM664.72,1519c0-.23.1-.49.33-.77.11-.04.35.49.48,1.37.14.89.15,1.58.15,1.7-.23.06-.36-.49-.96-2.3h0ZM665.74,1524.06c-.36-.15-.38-1.41-.03-1.6.11-.15.47.34.59,1.13.24.63.26,1.32.03,1.49-.1.02-.22-.06-.23-.4,0-.35-.13-.54-.35-.61h-.01ZM666.38,1528.18c0-.34-.11-.78-.24-.76-.23.06-.34-.03-.13-.43.11-.38.23-.75.23-.86,0-.23.09-.38.22-.18.23.07.48,1.16.62,2.51.25,1.32.39,2.56.27,2.7-.11.02-.11-.21-.12-.55,0-.23-.24-.64-.36-.72-.11-.08-.24-.17-.12-.31,0-.12,0-.23-.24-.29-.12-.09-.23-.52-.14-1.11h.01ZM667.52,1533.21c-.12.14-.23-.07-.24-.53,0-.46-.25-.75-.36-.72-.68.17-.35-.26.33-.43.45-.11.57-.02.59.55,0,.46-.1.94-.32,1.12h0ZM668.84,1518.57c-.23-.52-.13-.99.22-.73.23.05.24.39.14.77l-.11.72-.25-.76ZM668.98,1519.69c0-.11.11-.26.34-.19.11.09.24.16.24.28,0,0-.12.04-.23.06-.23.06-.34-.04-.35-.15h0ZM669.63,1523.23c-.25-.75-.26-1.43-.03-1.49.22-.05.35.37.36.71.01.57-.21.98-.33.78h0ZM679.71,1522.96c0-.23,0-.46.23-.28,0,.12,0,.46.01.57-.23.28-.23.17-.24-.29h0ZM681.13,1518.93c-.1.59-.43,1.03-.55,1.06-.1.02.33-1.23.54-1.64.24-.18.24.05.01.57h0ZM689.3,1495.71c.11-.26.21-.74.31-1,0-.12.24-.4.34-.32.12.09.01.69-.2,1.21-.22.63-.32,1.23-.1,1.28,0,.23,0,.34-.21.4-.57.14-.58-.43-.14-1.58h0ZM687.04,1509.53c.34-.21.34-.32.1-.6-.35-.15-.35-.38-.12-.44.23-.16.56-.94.77-1.68.32-1.34.88-2.17.77-1.23-.21,1.09-.86,3.21-1.19,3.87-.11.26-.1.61-.1.72.11.08,0,.34-.11.48-.11.02-.34-.03-.46-.34-.12-.31-.01-.57.33-.77h0ZM686.18,1512.62c.11-.15.34-.19.34-.08,0,.23-.22.51-.33.89-.15.41-.22.43-.23.05,0-.34.11-.71.22-.86h0ZM685.53,1514.97c.3-.39.38-.41.24-.06,0,.34-.11.71-.11.71,0,.23-.12.27-.34.32-.45.12-.36-.15.2-.97h.01ZM684.35,1519.18c.24.18.35.26.35.38,0,0-.11.04-.34.08-.11.02-.23-.06-.24-.17,0-.23.12-.27.23-.29h0ZM681.78,1516.57c-.15.04-.23-.02-.24-.17.12-.15.34-.31.34-.31.12-.02.23.05.24.16,0,.23-.23.29-.34.32h0ZM683.3,1512.29c.01.57-.66,1.66-.68,1.09,0-.23-.11-.32-.22-.18-.22.18-.34.08-.35-.15,0-.22.33-.54.55-.82.58-.38.69-.4.7.06h0ZM684.54,1498.95c-.12.13-.35.43-.58.48-.23.06-.24-.17,0-.46.46-.45.92-.44.59-.01h-.01ZM686.16,1493.7c-.22.39-.33.89-.55,1.4-.44,1.15-.45.69-.02-1.04.22-.73.32-1.34.55-1.39.34-.08.35.49.02,1.03ZM686.98,1476.66c0,.23-.23.28-.34.32,0,0-.12.02-.13-.21,0-.11.12-.26.23-.29.23-.05.34.04.24.18h0ZM688.67,1480.86c.1.09.1.21-.12.27-.46.11-.67,1.18-.31,1.45.35.15.23.52-.33.99-.55.84-1.13.52-.69-.4.23-.28.45-.92.44-1.38.09-.94.55-1.28,1.02-.94h-.01ZM689.18,1472.43c0,.11-.22-.06-.34-.26-.17-.27-.13-.35.11-.26.22.17.35.37.23.52h0ZM690.52,1470.04c0,.22-.12.25-.34.08-.35-.16-.57.01-1.03.58-.66.85-1.12,1.2-1.12.74,0-.22.11-.26.22-.28.24.1.48-.21.59-.75l1.34-.62c.23-.03.34.02.34.24h0ZM728.14,1451.24c-.13.31-.25.48-.37.22-.24.05-.48.11-1.08.53-.48.25-.71.3-.48.11.49-.69,2.17-1.34,1.92-.86h.01ZM731.49,1449.77c-.12.03-.36.08-.36-.06s.24-.34.37-.51c.24-.05.36-.08.35.2,0,.14-.13.31-.36.37h0ZM729.9,1445.88c-.13.17-.6.42-1.08.82-.37.21-.84.47-1.32.43-.35-.2-.34-.35.01-.43.12-.03.96-.5,1.56-1.05.72-.6,1.32-.88,1.31-.74,0,.28.84-.04,1.92-.58,1.2-.56,1.56-.64,1.43-.33,0,.14-.84.62-1.68,1.09-.84.33-1.8.69-2.15.77v.02Z"/>
    </g>
    <g>
      <path class="st1" d="M460.84,1475.45c.24-.18.13-.16,0,0h0Z"/>
      <path class="st1" d="M460.12,1475.99c0-.12.24-.3.24-.3.24-.06.36-.08.48-.23-.24.05-.61.02-.73-.07-.24-.06-.85.08-1.21.3-.72.54-.84.57-.37-.16.24-.3.48-.48.48-.36.12-.02.48-.23.84-.69.24-.3.47-.61.6-.63.37.16.85-.08.84-.45,0-.12-.25-.18-.61-.1-.36.21-.61.14-.49-.37.11-.52-.01-.61-.61-.34-.72.3-.84.33-.61-.22,0-.24-.24-.06-.6.64-.47.73-.83,1.06-1.2.9-.24.06-.49-.24-.49-.37s-.25-.3-.49-.24-.48.36-.47.61c0,.12.13.21.24-.06.24-.06.36-.08.37.16,0,.12-.36.45-.72.53-.48.12-.73.06-.61-.09.23-.67-1.82.31-2.54,1.1-.36.46-.7.79-.95.85-.37.08-.29-1.64.08-1.74.13-.02.25.18.25.55-.1.4.01.61.25.32.25-.06.36-.46.48-.85,0-.49.23-.79.34-.82.25-.06.26.06.14.22,0,.24.37.03.96-.24.61-.39.97-.72.84-.93,0-.08.08-.1.24-.06.61.22,1.22.2,1.21-.17,0-.12.24-.42.47-.61.24-.06.36-.1.37.03-.12.28.12.1.6-.27,1.2-.91,1.55-1.72,1.05-2.45-.25-.3-.25-.55-.02-.85s.23-.42,0-.36c-.24.06-.37-.16-.38-.64,0-.36-.38-1-.75-1.28-.25-.43-.51-.97-.51-1.22,0-.12-.37-.52-.62-.83-.74-.31-.86-.28-4.71,1.64-2.18,1.02-4.59,2.21-5.31,2.51-1.21.54-2.05.87-14.23,6.77-3.61,1.74-6.76,3.12-7,3.3-1.22.61-2.9,1.5-4.5,2.36l-15.46,6.72c3.82-13.24,11.24-25.03,20.01-31.69,3.97-3.04,6.25-4.33,10.6-6,5.44-2.06,7.87-2.16,10.83-.44.62.59,1.23.67,1.59.47.36-.21.49-.36.36-.45-.13-.22,0-.49.35-.82.48-.48.35-.57-1.37-1.86-1.73-1.4-5.67-3.87-11.33-7.01-2.21-1.29-4.91-2.22-5.27-1.89,0,.12-.36.08-.61.02-.25-.18-1.84-.04-3.88.46-14.2,2.84-26.96,16.09-34.98,36-2.78,7.27-4.82,14.73-5.55,21.27-.02.1-.02.24-.04.34l-28.88,12.56c-1.56.76-4.57,2.21-8.17,3.94-5,2.24-11.43,5.18-14.63,6.78l-5.45,2.64-.6,1.06c-.22.84-.07,1.45,1.03,2.51.95.71,1.71,1.53,1.53,1.64.11.07.54.39,1.25.67.71.29,1.14.6.65.75-.28.03-.37.22-.04.45.1.08.59-.06.84-.36.27-.3.93-.55,1.15-.39.3-.04,1.45-.43,2.38-.98.93-.55,2.06-.93,2.55-1.08.77-.17,1.92-.57,3.04-1.23,1.68-.99,2.45-1.16,2.91-.58.2.17.38.06.94-.27.37-.22.65-.52.55-.61-.12-.07-.04-.26.33-.48.19-.11.49-.15.42.04-.09.19.2.17.38.06.19-.11.46-.41.55-.61.14-.37,3.24-2.05,3.93-2.03.21.16.89-.1,1.45-.43.56-.33,1.03-.47.87-.09.03.27.21.16.86-.37.45-.4.93-.55,1.22-.58.3-.04,1.43-.42,2.55-1.08,1.05-.48,1.89-.83,1.82-.65.1.08.4.05.77-.17.62-.37.75-.35.4.05-.35.49-1.47,1.15-2.8,1.65-.13.07-.25.15-.37.22-.19.11-1.52.61-2.94,1.31-1.62.53-3.6,1.56-4.9,2.32-1.12.66-2.44,1.15-2.84,1.11-.3.04-1.15.39-1.98,1.03-.82.62-1.38.95-1.22.58-.11-.07-.4-.05-.77.17-.67.26-1.79.92-2.54,1.36s-1.31.77-1.19.84c.43.31,2.33-.24,3.35-.99.28-.3,1.02-.74,1.22-.58.3-.04.77-.17.93-.55.28-.3.37-.22.33.23-.44.68-.62.79-2.33,1.51-1.15.39-2.29.79-2.39.7-.1-.08-.29.03-.47.14-.27.3-.56.33-.77.17-.21-.16-.8-.09-1.17.13-.37.22-.35.49.05.53.4.05.41.32.04.54-.56.33-1.37-.04-1.72-.54-.1-.08-.57.05-.84.36-1.02.74-.85,1.35.39,1.04.59-.06.68.02.31.24s-.94.27-1.24.31c-.68-.02-1.78.91-1.37,1.23.43.31,4.14-1.17,10.08-3.96,3.11-1.41,6.9-3.06,8.23-3.57,1.99-.76,2.55-1.09,2.33-1.25s-.21-.16.49-.15c.69.03,1.25-.3,4.08-1.68.86-.38,1.89-.83,2.36-.98.31-.03,1.64-.53,2.57-1.08,3.01-1.5,3.48-1.63,4.07-1.69.77-.17-.35.49-3.09,1.67-1.23.6-3.12,1.43-4.15,1.89-1.12.66-3.01,1.49-4.16,1.89-3.04,1.23-20.59,9.31-21.34,9.74-.56.33-.65.51-.44.67s3.26-1.06,6.64-2.77c1.21-.59,4.34-2,6.71-2.96,2.54-1.09,5.31-2.28,6.24-2.83.75-.44,1.41-.69,1.59-.8.4.05,1.25-.33,2.19-.88.75-.44,1.6-.79,1.9-.82.1,0,.41-.11.69-.2l25.22-11.5c1.5,4.32,3.75,7.16,6.36,8.16,1.23.55,7.94,1.6,11.36,1.99,1.09-.02,3.05.36,4.51.61,1.47.37,3.41.51,4.15.57,3.05-.25,6.79-1.65,10.87-4.23,1.69-.9,3.13-1.74,3.13-1.74,0,.12-.31,2.65-.74,5.81-.55,3.06-1.2,7.01-1.41,9.02l-.33,2.68-1.39,7.1c-.12,1.02-.37,2.97-.69,5.31-.57,3.2-1.24,7.33-1.46,9.43l-.44,3.55.62.62c.61.36,1.22.47,2.69.23,1.09-.27,2.18-.41,2.19-.29.12-.04.61-.16,1.21-.43s1.09-.4.97-.11c-.12.15,0,.25.37.16.12-.02.24-.32.11-.53-.13-.23,0-.64.23-.7.12-.16.35-.86.35-1.5s.23-1.32.34-1.61c.24-.44.47-1.14.46-1.9-.01-1.15.22-1.59.95-1.64.24-.05.24-.18.24-.56,0-.25-.13-.48-.25-.46-.12.04-.24-.05-.25-.31,0-.13.12-.29.24-.2.12.1.24-.05.24-.18s-.13-.36-.25-.46c-.24-.18-.15-2.25.21-2.59.24-.06.36-.48.35-.86,0-.38.11-.66.36-.47.24.07.24-.06.12-.55-.13-.35,0-.64.11-.79.12-.16.35-.85.34-1.61.11-.67.23-1.21.35-1.12.12-.03.24-.19.24-.44,0-.43.08-.49.24-.19.25.32.26,1.08.02,1.91v.25c0,.13-.23.95-.34,1.88-.35.98-.46,2.29-.45,3.18.01.76-.22,1.58-.46,1.77-.12.16-.23.7-.11,1.31.13.6.13.98-.11.79-.12.04-.24.19-.24.44-.12.42-.11,1.18-.1,1.69,0,.51.01.89.13.85.48-.12.96-1.25.83-1.99-.12-.23-.13-.74.11-.79.12-.16.24-.44,0-.64-.12-.23,0-.25.36-.1.37.42.37.55.14,1.63-.23.7-.47,1.4-.59,1.42-.12.03-.12.15-.12.28.12.23,0,.38-.24.44-.24.06-.48.38-.48.63s.25.32.49.13.48-.11.49.14c0,.38-.72.68-1.33.71-.12.02-.24.3-.12.53.13.74.74.83,1.1.11.24-.32.36-.34.36-.09s-.24.56-.36.72c-.36.34-.11,1.17.38,1.06.48-.12,1.06-2.45,1.62-6.28.34-1.99.81-4.41,1.04-5.23.34-1.23.33-1.61.09-1.55-.16.04-.12-.06.12-.29.37-.34.37-.72.59-2.57.1-.55.23-1.21.34-1.49.13-.16.36-.99.35-1.62.21-1.97.34-2.25.58-2.56.24-.44.25.32-.11,2.06-.1.8-.33,2.01-.44,2.67.01.76-.22,1.97-.45,2.67-.46,1.9-2.26,13.2-2.26,13.71,0,.38.12.48.36.42.24-.06.72-1.97.93-4.19.1-.79.44-2.79.8-4.28.33-1.61.69-3.36.68-4,0-.51.11-.92.11-1.04.24-.19.34-.73.34-1.37,0-.51.12-1.04.24-1.21.04-.05.11-.24.17-.41l5.18-31.22c1.19-6.31,3.05-14.94,3.47-15.73.23-.55.34-1.07.34-1.19-.24-.06,0-.36.11-.39.24-.06.36-.08,0-.24-.12-.1-.03-1.7.86-6.07.67-3.33,1.34-6.18,1.34-6.18.12-.04,1.32-.69,2.66-1.38,1.43-.72,2.65-1.38,2.77-1.53,0-.12-.13-.33-.37-.51-.62-.46-.38-.65.71-1.15.36-.22,1.08-.51,1.45-.72.36-.21.61-.14.61.22s-.11.4-.48.24c-.25-.19-.33-.13-.24.18,0,.36-.11.75-.71,1.03-.6.27-.6.39.37.03,2.41-.95,3.14-1.38,3.37-1.68l-.07-.05ZM337.65,1525.36c-.28.3-.83.63-1.12.66-1.17.13-.74-.55.69-.97.77-.17.89-.1.43.31h0ZM340.69,1524.14c-.37.22-.75.44-1.12.66-.37.22-.49.15-.33-.23.55-.61,1.68-.99,1.45-.43h0ZM403.97,1474.4c.13-.15.24-.06.14.22-.23.67-.47.85-.48.36,0-.12.23-.42.34-.58ZM400.6,1482.68c0-.24.23-.42.23-.42.12-.04.24.06.25.3,0,.24-.24.3-.36.33-.16.04-.2-.03-.13-.21h0ZM398.91,1489.31c.11-.13.12.35.05.91l-.33.14c.09-.45.19-.92.29-1.05h-.01ZM371.26,1517.29c-.37.22-.66.25-.77.17-.21-.16-.03-.27.35-.49.3-.04.77-.17.89-.1.1.08-.28.3-.46.41h-.01ZM374.96,1511.57c-.64.53-1.49.88-2.16,1.15-.97.27-1.81.63-2.11.67-.56.33-2.15,1.13-3.57,1.82-1.52.61-3.02,1.22-3.14,1.14-.4-.05.16-.38,2.24-1.32,1.9-.82,3.3-1.52,3.1-1.69-.11-.07.93-.55,2.37-.96,1.24-.32,2.76-.93,2.95-1.04.56-.33.67-.26.33.23h0ZM379.58,1513.52c-1.15.39-1.52.61-1.89.83.03.27-.28.3-.67.26-.69-.02,2.13-1.41,3.31-1.53.47-.14.1.08-.75.44h0ZM423.03,1503.1c-.96.84-1.79,1.78-1.79,1.9-.12.15-.24.3-.36.08-.12.02-.36.21-.6.51-.23.42-.6.64-.84.69-.24.06-1.08.64-1.92,1.33-.84.69-1.69,1.26-1.93,1.32s-.6.39-.96.73c-.24.3-.48.48-.48.36,0,0-.24.06-.6.39-.72.67-1.2.78-5.05,2.82-1.32.69-2.42,1.2-2.66,1.14-.72-.31-2.16-5.21-2.71-8.49-.1-.58-.15-1.3-.18-2.07l29.35-13.38c-.09.63-1.06,2.57-2.48,4.91-1.65,2.6-3.93,5.11-6.79,7.76h0ZM428.97,1556.45c-.48.63-.85.21-.5-.64.24-.44.36-.48.49-.12.12.23.13.61.01.76ZM429.06,1554.64c-.25-.46-.01-1.15.35-.86,0,.25,0,.51.01.76,0,.25-.12.29-.36.1h0ZM435.62,1534.12c-.25.57-.36,1.1-.48,1.27,0,.38-.1,1.42-.21,2.35-.23.95-.46,1.89-.58,1.93-.24.19-.25-.19-.02-1.53.24-1.21.34-2.12.1-2.07-.12.04,0-.64.36-1.49.34-.72.58-1.67.57-1.8,0-.38.12-.42.36-.1.14.48.01,1.02-.09,1.44h-.01ZM438.57,1536.7c-.24.06-.24-.07-.25-.32.12-.16.24-.44.36-.48.12-.02.12.23.13.36,0,.25-.12.41-.24.44ZM451.79,1479c-.24.06-.24-.06-.14-.34.13-.15.23-.42.37-.45,0,0,.11.22.12.34,0,.24-.1.39-.35.45h0ZM453.3,1475.7c-.24.06-.24-.06-.25-.3.12-.16.24-.3.36-.34.12-.02.12.1.13.22,0,.24-.11.39-.24.42Z"/>
      <path class="st1" d="M524.08,1436.44c-4.37-5.41-8.55-7.68-13.79-7.39-3.16-.08-6.08-.22-8.89-.88-2.7-.69-2.94-.63-6.21.16-4.84,1.18-8.22,3.34-13.35,8.38-.42.41-.82.86-1.23,1.29-.44.42-.89.83-1.36,1.29-11.11,10.89-19.35,31.83-19.27,48.54-.06,3.19.23,5.69.62,6.81.13.34.26,1.03.28,1.64.67,3.38,4.07,8.79,6.91,10.9,3.08,2.06,4.79,2.37,14.52,1.96,2.31-.2,5.1-.28,6.09-.26,3.04-.14,7.63-1.74,11.23-4.09.96-.59,1.45-1.08,1.44-1.44,0-.49-.01-.61.35-.34.5.24,1.71-.41,4.46-2.8,1.09-.95,2.17-2.02,3.24-3.19,7.56-6.91,14.89-19.4,18.55-32.16,3.65-12.5,2.64-20.68-3.59-28.44v.02ZM502.21,1436.63l1.69-.53,1.36,1.38c1.74,1.9,3.74,4.58,4.64,6.44.38.89.75,1.77.89,1.98,1.25,2.37,1.52,3.9,1.5,8.55.1,5.35-1.26,11.05-4.5,19.29-3.53,8.78-7.37,15.04-12.58,20.66-2,1.9-4.13,3.81-4.38,3.88-.13.02-.6.39-1.21.78-.48.36-1.8,1.17-2.76,1.78-1.08.75-1.92,1.08-2.17,1.14-.36.08-3.09-2.79-3.98-4.52-4.54-7.57-3.83-21.42,1.62-35.7,1.74-4.46,2.91-6.93,5.63-11.26,1.99-3.24,4.29-6.23,6.65-8.79,2.66-2.46,5.31-4.28,7.6-5.07h0ZM476.32,1478.61c.12-.28.24-.42.36-.46.13-.02.13.1.14.34,0,.24-.13.39-.25.42-.24.06-.24-.06-.25-.3ZM528.15,1457.92c-.24.06-.25-.3-.14-.69.11-.4.23-.67.35-.7.24-.05.25.19.13.58-.11.39-.23.79-.35.81h.01Z"/>
      <path class="st1" d="M593.35,1413.65c-4.37-5.88-8.55-8.36-13.79-8.05-3.16-.09-6.09-.25-8.91-.97-2.69-.75-2.93-.69-6.2.17-4.75,1.25-8.09,3.54-13.06,8.78-.91.86-1.85,1.79-2.87,2.87-11.09,11.8-19.3,34.5-19.19,52.62-.05,3.47.24,6.17.63,7.39.13.37.27,1.13.28,1.79.68,3.66,4.09,9.53,6.93,11.82,3.08,2.24,4.79,2.59,14.52,2.15,2.31-.21,5.1-.28,6.08-.27,3.05-.13,7.64-1.88,11.24-4.4.96-.65,1.45-1.18,1.44-1.58v-.26c.08-.05.17-.11.25-.16.03.02.06.03.1.07.5.27,1.69-.45,4.45-3.02.66-.62,1.32-1.31,1.97-2.03.2-.18.39-.36.61-.56,7.77-7.35,15.41-21.29,19.16-35.52,3.63-13.55,2.61-22.42-3.65-30.85h.01ZM597.31,1436.2c.12-.42.23-.72.36-.75.24-.06.25.2.12.62-.1.43-.23.86-.34.89-.24.06-.25-.33-.15-.76h.01ZM545.91,1459.64c-.24.06-.24-.07-.25-.33.12-.29.23-.46.36-.49.12-.04.12.09.13.36,0,.26-.11.43-.23.46h-.01ZM560.2,1480.68c-.12.04-.6.42-1.2.85-.48.38-1.8,1.26-2.76,1.91-1.08.81-1.92,1.18-2.17,1.23-.36.1-3.1-3.02-4-4.91-4.54-8.21-3.86-23.24,1.57-38.72,1.73-4.82,2.89-7.52,5.6-12.21,2.37-4.18,5.16-8.01,7.99-11.07,2.2-2,4.34-3.45,6.24-4.14l1.69-.58,1.37,1.5c1.74,2.06,3.74,4.99,4.64,7,.39.96.77,1.93.89,2.15,1.27,2.59,1.54,4.24,1.52,9.28.11,5.8-1.23,11.99-4.46,20.93-3.58,9.69-7.47,16.54-12.83,22.71-.68.77-1.56,1.71-2.46,2.64-.86.83-1.51,1.41-1.64,1.44h.01Z"/>
      <path class="st1" d="M621,1470.8c-.16,0-.48.36-.48,1.06,0,.35.32.71.48.52.15-.17.31-.52.31-.87s-.15-.71-.31-.71h0Z"/>
      <path class="st1" d="M620.84,1474.68c-.16-.35-.32-.35-.32.35,0,.36.15.71.32.54.16-.17.16-.54,0-.89Z"/>
      <path class="st1" d="M621,1469.92c0,.17.15.35.31.35h.33c0-.17-.16-.35-.33-.52-.15-.19-.31,0-.31.17Z"/>
      <path class="st1" d="M616.04,1474.33c-.15,0-.32.17-.32.35,0,.35.16.52.32.52.32,0,.48-.17.48-.52,0-.17-.16-.35-.48-.35Z"/>
      <path class="st1" d="M617.96,1478.57c.15-.71.15-.89-.32-.17-.32.17-.47,1.41-.47,2.46-.16,1.24.15,1.95.31,1.77.16-.17.48-.35.48-.71s.15-.87.32-.87c.16-.19.16-.54-.16-1.06-.15-.35-.31-1.06-.15-1.41h-.01Z"/>
      <path class="st1" d="M620.52,1476.27c-.15.36-.32.71-.32,1.24s.16.89.32.52c.32,0,.48-.7.48-1.05,0-.54-.16-.71-.48-.71Z"/>
      <path class="st1" d="M674.84,1402.89c-.79-1.24-3.35-4.58-5.6-7.76-6.06-8.64-9.9-11.46-17.41-13.06-3.04-.52-10.07-.7-13.58-.35-4.96.54-7.51.89-7.67,1.06s-.97.35-1.92.35c-.8.17-2.08.54-2.89.54-.95.17-1.43,0-1.75-.36-.16-.52-.32-.52-1.11,0-.64.36-.8.36-.97-.17-.31-.7-2.56-1.76-4.95-2.29-2.08-.36-2.24-.36-2.88.87-.48.54-1.12,2.65-1.6,4.59-.64,3.35-.8,3.52-2.39,4.58-6.08,4.06-9.43,7.76-9.11,10.4.32,1.24,6.23,7.77,7.03,7.77.64,0,.47,1.94-.96,12.7-1.07,8.23-1.97,15.57-2.71,22.04-1.28,12-1.28,12.52-2.4,12.17-.48-.17-.64,0-.64.17.32.35-2.07,1.59-2.4,1.24-.15-.17-.47,0-.79.35s-.79.52-1.28.35c-.32,0-.96.17-1.28.54-.32.35-1.12.52-1.92.52-2.88,0-2.88,2.65,0,4.76,1.6,1.24,1.6,1.42,2.07.54.33-.54.64-.54.97-.35,0,.35.47.35,1.11,0,.64-.24.91-.18.8.17-.16.52.15.7.64.7.95,0,1.92-.35,1.92-.87,0-.19-.33-.19-.8.17-.8.7-1.6,0-.8-.54.48-.7,2.72,0,2.72.54-.16,1.94-.8,12.52-.96,14.29,0,1.21.04,2.03.24,2.27.41-.18.87-.37,1.26-.54-.03-.1-.07-.2-.07-.32,0-.71.16-.71.33-.35.1.22.03.38,0,.56,1.6-.71,2.99-1.34,4.25-1.93.02-.09.14-.22.38-.4.48-.17.64-.7.64-1.22,0-.36.15-.54.32-.19.32.89,1.75-.7,1.92-2.11,0-.52.32-1.06.64-1.24.32,0,.47,0,.32.52-.15.36-.15.71.15.71.16,0,.33-.17.33-.52,0-.71,1.11-1.6,2.56-2.3,1.75-.89,2.07-.89,1.75-.35-.16.35,0,.7.16.7.15.17.47,0,.47-.35s.16-.71.47-.71c.16,0,.48.89.33,3.01,0,2.29.15,2.82.31,2.11.33-.52.64-1.59.64-2.11,0-.71.33-1.6.64-1.95.16-.17.16-.87.16-1.41-.16-.89.96-2.11,1.44-1.59.64.7,1.75-1.76,1.59-3.17,0-.89,0-1.59.33-1.59.31,0,.31-.36.31-1.41-.47-2.12.48-7.06,1.12-6.53.32.35,3.83-1.06,3.83-1.59,0-.35.15-.35.48-.52,2.56-.19,3.99-.71,5.42-2.47.33-.35.8-.54,1.12-.17.32.17.64.17.96-.36.32-.35.8-.7,1.11-.7.33,0,.48-.17.33-.71-.16-.52,0-.52.31,0,.33.54.64.71.64.36,0-.19.33-.54.64-.54.33,0,.64-.17.64-.35s.33-.52.8-.7c.32-.19.64-.54.47-.71-.15-.17-.31-.35-.64,0-.15,0-.31,0-.15-.17.15-.35.64-.54,1.28-.35.64.17.96,0,.96-.19,0-.35.32-.52.47-.35.16.17.64.17.97-.17.31-.35.64-.35.64-.17,0,.35-.48.89-1.12,1.41-.64.17-1.43,1.06-1.76,1.41-.31.52-.95.7-1.28.52-.31,0-.79.17-1.11.71-.32.35-.32.52,0,.35s.47,0,.47.17c0,.36-.31.36-.79.17-.48-.17-1.12.19-1.43.54-.33.52-.97.87-1.28.7-.33-.17-.48,0-.48.35,0,.19-.32.36-.64.36s-.64.35-.64.87c0,.36-.15.54-.32.36s-.47,0-.64.52c-.16.35-.47.52-.96.35-.79-.17-.96-.17-.64.54.32.52.15.52-.32.17-.47-.54-1.44,0-1.44,1.06,0,.35-.64.7-1.28,1.05-.47.35-.79.71-.79.89.15,0,.79-.17,1.6-.54,1.44-.87,1.6-.87,1.6-.35,0,.17-.79.89-1.76,1.24-1.11.54-1.92,1.24-1.92,1.59,0,.71.16.71,1.28,0,.64-.35,1.61-.7,1.92-.7.33,0,1.28-.54,1.92-1.06.64-.35,1.28-.89,1.44-.89,0,0,.64-.35,1.28-.52.64-.35,1.44-.7,1.75-.7.16,0,.97-.54,1.61-1.24.79-.54,1.43-.89,1.59-.71,0,0,.33,0,.64-.35.33-.35.64-.52.64-.35,0,.35.33.17.48-.36.21-.35.32-.35.32,0-.32.71-3.2,2.82-3.51,2.47-.32-.17-1.6,1.59-1.6,2.12s.8.52,1.28,0c.32-.19,2.08-1.24,4.15-2.65,1.92-.89,4.15-2.3,4.63-2.82.48-.36,1.12-.89,1.28-.89s2.56-1.59,5.44-3.7c9.74-7.07,16.62-13.94,20.6-20.47,1.12-1.94,2.07-3.71,2.24-4.06.16-.52.47-1.41.64-2.11.32-.71.8-2.65.96-4.06.79-5.29-.48-10.24-3.83-14.82l.02.04ZM602.3,1479.98c-.16.17-.32,0-.32-.52s.15-.71.32-.19c.16.19.16.71,0,.71ZM613.97,1446.99c-.16.36-.16,0-.16-.52,0-.7,0-.87.16-.7.15.35.15,1.05,0,1.22ZM614.92,1469.75h-.79c0-.19.15-.36.79-.71.33-.17.8-.17.8,0s-.47.52-.8.71ZM616.04,1464.28c-.32.35-.32,0-.32-.54,0-.7,0-.87.32-.7v1.24ZM615.89,1445.4c-.16,0-.33,0-.33-.35-.15-.17-.15-.52.16-.52.16,0,.32.35.32.52,0,.23-.05.35-.15.35h0ZM618.75,1441.17c-.31,3-.79,5.29-1.11,5.29,0,0-.32.17-.96.17-.43.11-.38-.18.15-.87.48-.54.8-1.41.8-1.77,0-.58-.11-.58-.32,0-.21.47-.32.53-.32.17s.16-.87.32-1.05c.15-.17.32-.54.32-.71s-.16-.35-.32-.17c-.32.17-.15-.17.15-.89.8-1.4,1.44-1.4,1.28-.17h0ZM618.92,1439.23c-.32.71-.47.35-.47-.89,0-1.05.31-1.76.47-1.76s.47.35.47,1.06c0,.52-.31,1.24-.47,1.59ZM619.39,1434.47c0,1.05-.31,1.76-.64,1.76,0,0-.15-.17,0-.54.48-1.59.48-4.22,0-4.58-.31,0-.15-.17.33-.17.79-.17.79.89.31,3.53ZM620.2,1427.59c0,1.24-.32,2.29-.64,2.65-.11.23-.11.17,0-.19,0-.35,0-.87-.16-1.22-.47-.36-.47-.71,0-.71.16,0,.33,0,.16-.17s0-.89.32-1.59c.64-.89.64-.71.32,1.24h0ZM620.84,1422.47c0,.54-.16.71-.32.35,0-.35,0-1.05-.32-1.41-.16-.7,0-.87.32-.35.32.17.48.89.32,1.41ZM621.16,1419.83c-.15.36-.15.17-.15-.52,0-.54,0-.71.15-.54.15.36.15.89,0,1.06ZM621.64,1417.54c-.16,0-.33-.17-.33-.36,0-.35.16-.35.33-.35.31.35.47.54.47.71h-.47ZM639.05,1452.99c-.32,0-.48-.17-.48-.71,0-.35.16-.52.48-.35.15.17.32.52.32.7,0,.36-.16.36-.32.36ZM630.9,1400.96c.33-.35.48-.17.8,0,0,0-.16.17-.47.17-.48,0-.64-.17-.33-.17ZM625.15,1425.12c.16-.17.33-.52.33-.52.15,0,.31.35.31.52,0,.35-.31.52-.47.52-.32,0-.32-.17-.16-.52h-.01ZM625.31,1426.01c.16,0,.32.17.16.35,0,.35-.16.52-.33.52-.15,0-.15-.17-.15-.52,0-.17.15-.35.32-.35h0ZM623.71,1438.34c0-.35.32-.87.32-.87,0,0,.16.52.16.87,0,.54-.16.89-.48.89-.15,0-.15-.35,0-.89ZM622.92,1442.58c0-.7.31-1.05.47-1.41.16,0,.32.17.32.71s-.15,1.06-.32,1.24c-.16.17-.47-.17-.47-.54h0ZM624.2,1455.1c-.16.17-.48,0-.48-.17s.32-.52.48-.7c.15-.17.31,0,.31.17s-.15.52-.31.7ZM624.51,1430.05c0-.17.16-.52.48-.7.15-.17.32,0,.32.17s-.16.52-.32.71c-.32.17-.48,0-.48-.19h0ZM627.06,1454.23c-.31.17-.64,0-.31,0,.15-.36,0-.71-.33-1.06-.21-.36-.21-.54,0-.54.16.36.48.19.8,0,.47-.52.47-.35.47.36,0,.52-.15,1.06-.64,1.24h.01ZM645.12,1452.63c-.16.36-.32.36-.47.19-.33-.19-.33.17-.64.52,0,.35-.33.52-.64.52-.33,0-.16-.17.15-.7.79-.89,2.07-1.24,1.6-.54h0ZM646.72,1445.22c-1.17.94-1.65,1.12-1.43.54,0-.36.47-.71.79-.89.48-.17,1.12-.35,1.43-.52.16-.19,0,.17-.79.87ZM648,1450.87c-.15.36-.32.36-.32.36-.16,0-.32,0-.32-.36-.15-.17,0-.17.32-.17s.47,0,.32.17ZM648.48,1443.46c.15-.7.64-.89.95-.89.48,0,.64.19.48.36,0,.17-.48.52-.79.87-.64.35-.8.35-.64-.35h0ZM650.87,1448.93c-.32-.17-.96.17-1.44.87-.31.71-.79,1.06-.79.89,0-.35.48-1.06.96-1.59.8-.7,1.11-.89,1.28-.35.16.35,0,.35,0,.17h-.01ZM651.35,1442.23c-.31,0-.47-.17-.47-.52s.16-.71.47-.71c.16,0,.48.17.48.54,0,.17-.32.35-.48.7h0ZM664.93,1404.48c-.32.89-.64,1.6-.64,1.77s-.32.87-.64,1.59c-4,8.82-14.86,19.04-31.95,30.16-7.19,4.77-6.71,4.77-6.23-.17.31-2.12.79-5.47.95-7.23.33-1.59,1.28-8.47,2.08-15.17.96-6.71,1.75-12.35,1.75-12.35.16-.17,7.36-2.46,8.47-2.64,8.95-1.77,16.3-2.12,21.41-1.24,5.6,1.05,6.07,1.76,4.79,5.28h.01Z"/>
      <path class="st1" d="M636.49,1457.75c-.32-.35-.32-.17-.15.17.15.17,0,.54-.33.54-.31,0-.64.35-.64.52,0,.52-.31.71-.64.71-.47,0-.95.17-1.28.17-.64.17-2.07,1.76-1.92,2.11.16.35,2.72-.52,2.72-.89s.47-.7,1.28-1.05c1.44-.35,2.08-1.59.96-2.3v.02Z"/>
      <path class="st1" d="M625.78,1461.98c-.31.47-.47.47-.47,0,0-.35-.11-.35-.32,0-.32.35-.48.71-.48.89s.16.35.33.35c.47,0,1.28-.89,1.28-1.41,0-.35-.16-.17-.33.17h-.01Z"/>
      <path class="st1" d="M626.11,1459.87c0,.52.15.7.15.7.15,0,.48-.17.64-.7.48-.54.48-.71-.15-.71-.33,0-.64.35-.64.71Z"/>
      <path class="st1" d="M628.82,1463.22c-.32.52.15.52.96,0,.47-.35.47-.52-.16-.52-.31,0-.79.35-.79.52h-.01Z"/>
    </g>
  </g>
</svg>